Coordinates
version=1
nRows=60
nColumns=12
inDegrees=yes

Units are S.I. units (second, meters, Newtons, ...)
Angles are in degrees

endheader
time	SC_y	SC_z	SC_x	AC_y	AC_z	AC_x	GH_y	GH_z	GH_yy	EL_x	PS_y
       0.0              -16.64          25.43          31.08          69.56          5.347        -0.9573         -57.93           70.7         -110.4          80.24          71.55
   0.01218              -16.64          25.43          31.08          69.56          5.344        -0.9569         -57.92           70.7         -110.4          80.23          71.54
   0.02436              -16.65          25.42          31.07          69.55          5.342        -0.9565         -57.91           70.7         -110.4          80.22          71.54
   0.03655              -16.66          25.42          31.07          69.54          5.338         -0.956         -57.89           70.7         -110.4          80.22          71.53
   0.04873              -16.66          25.41          31.07          69.54          5.335        -0.9555         -57.88           70.7         -110.3          80.21          71.53
   0.06091              -16.67          25.41          31.07          69.53          5.332         -0.955         -57.87           70.7         -110.3          80.19          71.53
   0.07309              -16.68           25.4          31.06          69.52          5.328        -0.9545         -57.85           70.7         -110.3          80.18          71.52
   0.08528              -16.68          25.39          31.06          69.52          5.324        -0.9539         -57.83           70.7         -110.3          80.17          71.52
   0.09746              -16.69          25.39          31.06          69.51           5.32        -0.9532         -57.81           70.7         -110.2          80.16          71.51
    0.1096               -16.7          25.38          31.05           69.5          5.315        -0.9525          -57.8           70.7         -110.2          80.15           71.5
    0.1218              -16.71          25.37          31.05          69.49           5.31        -0.9518         -57.77           70.7         -110.1          80.13           71.5
     0.134              -16.72          25.36          31.05          69.48          5.305         -0.951         -57.75           70.7         -110.1          80.12          71.49
    0.1462              -16.73          25.35          31.04          69.47          5.299        -0.9501         -57.73           70.7         -110.0           80.1          71.48
    0.1584              -16.75          25.34          31.04          69.45          5.293        -0.9492          -57.7           70.7         -110.0          80.08          71.48
    0.1706              -16.76          25.33          31.03          69.44          5.286        -0.9482         -57.67           70.7         -109.9          80.06          71.47
    0.1827              -16.77          25.32          31.03          69.43          5.279        -0.9471         -57.64           70.7         -109.9          80.04          71.46
    0.1949              -16.79          25.31          31.02          69.41          5.271         -0.946         -57.61           70.7         -109.8          80.01          71.45
    0.2071              -16.81          25.29          31.01          69.39          5.262        -0.9447         -57.57          70.71         -109.7          79.99          71.44
    0.2193              -16.82          25.28          31.01          69.38          5.253        -0.9433         -57.53          70.71         -109.7          79.96          71.43
    0.2315              -16.85          25.26           31.0          69.35          5.243        -0.9417         -57.49          70.71         -109.6          79.93          71.41
    0.2436              -16.87          25.24          30.99          69.33          5.231          -0.94         -57.44          70.71         -109.5           79.9           71.4
    0.2558              -16.89          25.22          30.98          69.31          5.219        -0.9382         -57.39          70.71         -109.4          79.86          71.38
     0.268              -16.92           25.2          30.97          69.28          5.205        -0.9361         -57.33          70.71         -109.3          79.82          71.37
    0.2802              -16.95          25.18          30.96          69.25           5.19        -0.9339         -57.27          70.71         -109.1          79.77          71.35
    0.2924              -16.98          25.15          30.95          69.22          5.173        -0.9313          -57.2          70.71         -109.0          79.72          71.32
    0.3046              -17.02          25.12          30.93          69.18          5.154        -0.9285         -57.12          70.71         -108.8          79.67           71.3
    0.3167              -17.06          25.08          30.92          69.14          5.133        -0.9254         -57.03          70.71         -108.7          79.61          71.27
    0.3289              -17.11          25.05           30.9          69.09          5.109        -0.9218         -56.93          70.71         -108.5          79.54          71.24
    0.3411              -17.16           25.0          30.88          69.04          5.082        -0.9178         -56.82          70.72         -108.2          79.46          71.21
    0.3533              -17.22          24.95          30.86          68.98          5.052        -0.9132         -56.69          70.72         -108.0          79.37          71.17
    0.3655              -17.29           24.9          30.83          68.91          5.017         -0.908         -56.54          70.72         -107.7          79.26          71.13
    0.3777              -17.37          24.83           30.8          68.83          4.977        -0.9021         -56.37          70.72         -107.4          79.14          71.08
    0.3898              -17.46          24.76          30.77          68.74          4.931        -0.8952         -56.18          70.72         -107.0          79.01          71.02
     0.402              -17.57          24.67          30.73          68.63          4.877        -0.8872         -55.95          70.73         -106.5          78.85          70.95
    0.4142               -17.7          24.57          30.68          68.51          4.814        -0.8778         -55.69          70.73         -106.0          78.66          70.87
    0.4264              -17.84          24.45          30.63          68.36           4.74        -0.8668         -55.38          70.74         -105.4          78.44          70.78
    0.4386              -18.02          24.31          30.56          68.19          4.652        -0.8536         -55.01          70.74         -104.7          78.18          70.67
    0.4507              -18.23          24.14          30.48          67.98          4.547        -0.8379         -54.57          70.75         -103.8          77.87          70.53
    0.4629              -18.48          23.93          30.39          67.73           4.42        -0.8189         -54.03          70.75         -102.8          77.49          70.37
    0.4751              -18.79          23.68          30.27          67.42          4.264        -0.7956         -53.37          70.76         -101.5          77.03          70.17
    0.4873              -19.17          23.37          30.13          67.04          4.072        -0.7669         -52.57          70.77         -99.87          76.46          69.93
    0.4995              -19.65          22.98          29.95          66.57          3.832        -0.7312         -51.56          70.79         -97.88          75.75          69.63
    0.5117              -20.25          22.49          29.73          65.98           3.53        -0.6861         -50.29           70.8         -95.38          74.86          69.24
    0.5238              -21.01          21.87          29.44          65.22          3.146        -0.6288         -48.67          70.83         -92.19          73.72          68.76
     0.536              -21.98          21.08          29.08          64.25          2.655        -0.5554         -46.61          70.85         -88.12          72.26          68.13
    0.5482              -23.24          20.06          28.61          63.01          2.024        -0.4613         -43.95          70.89         -82.89          70.39          67.33
    0.5604              -24.83          18.76          28.02          61.42          1.219        -0.3411         -40.57          70.94         -76.21          68.01          66.31
    0.5726              -26.84          17.12          27.26          59.42          0.206        -0.1899         -36.31           71.0         -67.81           65.0          65.03
    0.5848              -29.29          15.12          26.35          56.98         -1.028      -0.005734         -31.11          71.07         -57.58          61.35          63.47
    0.5969              -32.13          12.81          25.29          54.16         -2.459         0.2078          -25.1          71.15         -45.71          57.11          61.65
    0.6091              -35.21           10.3          24.14          51.11         -4.008          0.439         -18.58          71.24         -32.87          52.52          59.69
    0.6213              -38.29            7.8          22.99          48.05         -5.557         0.6702         -12.07          71.33         -20.03          47.93          57.73
    0.6335              -41.13          5.487          21.93          45.23         -6.987         0.8837         -6.051          71.41         -8.163          43.69          55.91
    0.6457              -43.58          3.492          21.01          42.79         -8.221          1.068        -0.8598          71.48          2.072          40.03          54.35
    0.6578              -45.59          1.854          20.26          40.79         -9.234          1.219            3.4          71.54          10.47          37.03          53.07
      0.67              -47.19         0.5518          19.66          39.21         -10.04          1.339          6.788          71.58          17.15          34.64          52.05
    0.6822              -48.44        -0.4677           19.2          37.96         -10.67          1.433           9.44          71.62          22.38          32.77          51.25
    0.6944              -49.41         -1.262          18.83          36.99         -11.16          1.507          11.51          71.65          26.45          31.32          50.62
    0.7066              -50.17         -1.883          18.55          36.23         -11.55          1.564          13.12          71.67          29.64          30.18          50.14
    0.7188              -50.77         -2.371          18.32          35.64         -11.85          1.609          14.39          71.69          32.14          29.28          49.76
